<?xml version="1.0" encoding="utf-8"?>
<!-- Generator: Adobe Illustrator 16.0.0, SVG Export Plug-In . SVG Version: 6.00 Build 0)  -->
<!DOCTYPE svg PUBLIC "-//W3C//DTD SVG 1.1//EN" "http://www.w3.org/Graphics/SVG/1.1/DTD/svg11.dtd">
<svg version="1.1" xmlns="http://www.w3.org/2000/svg" xmlns:xlink="http://www.w3.org/1999/xlink" x="0px" y="0px" width="118px"
	 height="118px" viewBox="0 0 118 118" enable-background="new 0 0 118 118" xml:space="preserve">
<g id="Layer_2">
	<circle fill="#FFFFFF" cx="59" cy="59" r="59"/>
</g>
<g id="Layer_3" display="none">
	<g display="inline">
		<path fill-rule="evenodd" clip-rule="evenodd" fill="#F58556" d="M48.377,32.264c0.297-0.757,0.521-1.548,0.986-2.23
			c0.541-0.792,1.239-1.425,2.027-1.965c1.742-0.928,3.542-1.211,5.445-0.533c0.722,0.257,1.351,0.667,1.979,1.086
			c0.158,0.225,0.302,0.076,0.436-0.024c2.424-1.803,4.94-1.884,7.539-0.4c0.019,0.01,0.043,0.008,0.064,0.012
			c0.506,0.468,1.058,0.887,1.492,1.428c0.397,0.532,0.668,1.137,0.982,1.716c0.019,0.084,0.036,0.17,0.054,0.255
			c0.025,0.058,0.051,0.115,0.075,0.172c0.012,0.173,0.015,0.349,0.15,0.483c0.136,0.873,0.081,1.748,0.017,2.622
			c-0.114,0.239-0.167,0.493-0.161,0.759c-0.02,0.052-0.039,0.104-0.059,0.155c-0.019,0.088-0.037,0.176-0.056,0.263
			c-0.21,0.482-0.42,0.964-0.63,1.446c-0.504,0.957-1.177,1.794-1.852,2.631c-0.562,0.51-1.114,1.031-1.688,1.528
			c-1.138,0.983-2.453,1.704-3.711,2.51c-0.232,0.103-0.46,0.215-0.696,0.308c-0.668,0.258-1.251,0.759-2.026,0.717
			c-0.739-0.343-1.478-0.687-2.217-1.03c-1.938-1.122-3.777-2.38-5.368-3.973c0.004-0.042-0.014-0.067-0.056-0.074
			c-1.338-1.526-2.333-3.232-2.742-5.244c-0.01-0.132-0.02-0.264-0.029-0.396c0.034-0.153,0.024-0.3-0.062-0.435
			c0-0.364-0.001-0.728-0.001-1.091c0.023-0.1,0.047-0.198,0.07-0.298C48.354,32.529,48.366,32.396,48.377,32.264z M67.111,36.177
			c0.05-0.021,0.064-0.053,0.045-0.101c0.032-0.088,0.064-0.176,0.099-0.265c0.026-0.047,0.053-0.093,0.08-0.14
			c0.021-0.08,0.039-0.158,0.059-0.237c0.021-0.053,0.044-0.104,0.067-0.155c0.417-1.471,0.382-2.883-0.54-4.181
			c-1.543-2.31-4.826-2.625-6.766-0.65c-0.334,0.339-0.641,0.716-1.157,0.787c-0.573-0.069-0.893-0.507-1.26-0.873
			c-2.266-2.245-6.366-1.206-7.244,1.863c-0.592,2.068,0.029,3.889,1.298,5.54c0.525,0.819,1.205,1.493,1.967,2.087
			c0.125,0.196,0.3,0.333,0.515,0.418c0.647,0.555,1.316,1.079,2.096,1.441c0.719,0.551,1.552,0.896,2.344,1.317
			c0.285,0.152,0.483,0.057,0.691-0.114c0.787-0.314,1.534-0.701,2.217-1.207c0.838-0.4,1.554-0.976,2.256-1.57
			c0.16-0.044,0.274-0.144,0.354-0.286c0.829-0.67,1.584-1.407,2.128-2.337c0.349-0.385,0.59-0.83,0.741-1.326L67.111,36.177z"/>
		<path fill-rule="evenodd" clip-rule="evenodd" fill="#F58556" d="M92.551,89.9c-0.163,0.674-0.611,0.942-1.279,0.919
			c-0.279-0.009-0.558,0.014-0.837,0.021c-0.872,0-1.745,0.001-2.617,0.001c-0.875,0-1.748,0-2.623,0c-0.872,0-1.745,0-2.617,0
			c-0.873,0-1.747,0-2.622,0c-0.873,0-1.745,0-2.617,0c-0.875,0-1.748,0-2.623,0c-0.873,0-1.745,0-2.617,0c-0.874,0-1.749,0-2.622,0
			c-0.872,0-1.745,0-2.618,0s-1.748,0-2.622,0c-0.872,0-1.745,0-2.617,0c-0.874,0.001-1.749,0.001-2.622,0.001
			c-0.873,0-1.745,0-2.617,0c-0.875,0-1.749,0-2.623,0c-0.872,0-1.745,0-2.617,0c-0.874,0-1.749,0-2.623,0c-0.872,0-1.745,0-2.617,0
			c-0.874,0-1.749,0-2.623,0c-0.873,0-1.745,0-2.617,0c-0.875,0-1.749,0-2.623,0.001c-0.873,0-1.746,0-2.617,0
			c-0.875,0-1.749,0-2.623,0c-0.872,0-1.745,0-2.617-0.001c-0.499-0.007-0.997-0.035-1.494-0.017
			c-0.437,0.016-0.812-0.093-1.131-0.389c-0.056-0.172-0.112-0.345-0.168-0.518c0-3.808-0.001-7.614-0.002-11.422
			c0.017-0.257,0.033-0.513,0.049-0.77c0.068-0.081,0.112-0.169,0.075-0.278c0.016-0.132,0.031-0.265,0.046-0.396
			c0.072-0.07,0.126-0.147,0.097-0.255c0.014-0.084,0.027-0.168,0.041-0.251c0.085-0.054,0.122-0.127,0.091-0.227
			c0.012-0.045,0.025-0.089,0.038-0.134c0.262-0.492,0.525-0.986,0.787-1.479c0.035-0.047,0.07-0.094,0.105-0.141l0.015-0.028
			c0.051-0.008,0.073-0.036,0.065-0.087c0.392-0.421,0.784-0.842,1.219-1.308c-0.852-0.265-1.651-0.513-2.452-0.762
			c-0.548-0.223-1.012-0.568-1.423-0.99c-0.507-0.738-0.729-1.558-0.688-2.451c0.09-0.873,0.179-1.746,0.269-2.621
			c0.14-0.818,0.28-1.635,0.419-2.454c0.219-0.925,0.436-1.851,0.654-2.777c0.269-0.871,0.537-1.743,0.805-2.614
			c0.106-0.068,0.095-0.173,0.089-0.277c0.299-0.785,0.598-1.571,0.897-2.355c0.399-0.874,0.8-1.749,1.2-2.622
			c0.18-0.228,0.324-0.475,0.41-0.754c0.393-0.62,0.785-1.241,1.176-1.861c0.478-0.609,0.957-1.218,1.435-1.828
			c0.301-0.226,0.561-0.492,0.781-0.797c0.61-0.537,1.22-1.073,1.829-1.609c0.493-0.333,0.986-0.664,1.479-0.996
			c0.381-0.188,0.763-0.378,1.144-0.568c0.593-0.3,1.349-0.313,1.803-0.833c0.922-1.056,2.068-1.618,3.44-1.769
			c1.277,0.048,2.469,0.381,3.351,1.34c0.532,0.578,1.147,0.896,1.871,1.083c2.069,0.984,3.895,2.297,5.428,4.008
			c1.256,1.401,2.272,2.968,3.202,4.595c0.577,1.307,1.154,2.615,1.73,3.92c0.029,0.092,0.059,0.183,0.088,0.274
			c0.017,0.037,0.035,0.073,0.051,0.11c0.098,0.306,0.195,0.613,0.292,0.921c0.266,0.875,0.53,1.749,0.795,2.625
			c0.213,0.872,0.425,1.743,0.639,2.615c0.082,0.489,0.175,0.977,0.242,1.467c0.17,1.261,0.331,2.522,0.496,3.783
			c0.005,0.254,0.01,0.508,0.015,0.762c-0.153,0.563-0.323,1.118-0.651,1.611c-0.031,0.038-0.063,0.075-0.097,0.112
			c-1.017,1.105-2.516,1.177-3.855,1.767c0.625,0.483,1.048,1.087,1.531,1.7c0.219-0.384,0.401-0.702,0.583-1.022
			c0.049-0.006,0.074-0.033,0.075-0.083c0.727-0.973,1.641-1.732,2.662-2.376c0.836-0.309,1.671-0.617,2.508-0.927
			c1.758-0.481,3.518-0.957,5.242-1.555c0.233-0.038,0.467-0.082,0.702-0.114c0.34-0.044,0.559-0.21,0.604-0.568
			c0.044-0.354-0.022-0.617-0.406-0.767c-0.318-0.124-0.604-0.33-0.903-0.5c-0.348-0.27-0.693-0.54-1.041-0.812
			c-0.473-0.523-0.947-1.047-1.42-1.57c-0.194-0.304-0.387-0.605-0.58-0.908c-0.108-0.231-0.269-0.453-0.314-0.697
			c-0.204-1.055-0.84-1.479-1.88-1.361c-0.449-0.138-0.824-0.397-1.178-0.697c-0.613-0.722-0.652-1.598-0.668-2.48
			c0.017-0.923,0.094-1.822,0.815-2.522c0.075-0.074,0.082-0.242,0.082-0.367c0.002-0.52-0.012-1.04-0.02-1.561
			c0.008-0.263,0.018-0.527,0.026-0.79c0.127-0.884,0.326-1.751,0.583-2.607c0.171-0.396,0.341-0.791,0.513-1.186
			c0.306-0.479,0.611-0.958,0.919-1.438c0.513-0.545,1.025-1.09,1.538-1.636c0.448-0.328,0.896-0.655,1.344-0.983
			c0.428-0.225,0.854-0.449,1.283-0.674c0.944-0.336,1.914-0.581,2.897-0.772c0.78-0.015,1.561-0.029,2.34-0.043
			c0.875,0.006,1.749,0.013,2.624,0.018c0.886,0.114,1.753,0.318,2.618,0.538c2.966,1.166,5.06,3.216,6.268,6.168
			c0.236,0.86,0.464,1.722,0.572,2.611c0.008,0.781,0.016,1.562,0.022,2.344c0.002,0.152-0.018,0.317,0.102,0.432
			c0.712,0.681,0.761,1.569,0.784,2.467c-0.008,0.393-0.015,0.785-0.021,1.177c-0.162,0.534-0.397,1.028-0.779,1.444
			c-0.5,0.399-1.085,0.58-1.707,0.664c-0.493-0.122-0.779,0.023-0.93,0.555c-0.137,0.486-0.401,0.936-0.61,1.402
			c-0.931,1.534-2.166,2.764-3.697,3.698c-0.344,0.201-0.898,0.195-0.803,0.83c0.07,0.476,0.39,0.581,0.801,0.568
			c0.231,0.132,0.487,0.147,0.746,0.154c0.055,0.024,0.108,0.049,0.164,0.072c0.089,0.017,0.178,0.031,0.266,0.048
			c1.371,0.504,2.781,0.881,4.188,1.268c0.832,0.271,1.664,0.541,2.496,0.81c0.26,0.138,0.521,0.274,0.778,0.41
			c0.65,0.438,1.26,0.928,1.828,1.466c0.296,0.39,0.592,0.78,0.888,1.17c0.477,0.82,0.804,1.702,1.077,2.606
			c0.056,0.871,0.111,1.743,0.167,2.615c0,0.873,0,1.747,0,2.622c0,0.871,0,1.743,0,2.616c0,0.875,0,1.749,0,2.624
			C92.555,88.155,92.553,89.028,92.551,89.9z M31.854,57.539l0.02-0.02c0.035-0.034,0.07-0.068,0.105-0.102
			c0.258-0.097,0.35-0.291,0.36-0.557c0.1-2.616,1.059-4.9,2.681-6.928c0.165-0.171,0.33-0.342,0.495-0.514
			c0.493-0.429,0.986-0.857,1.479-1.285c0.568-0.489,1.456-0.583,1.791-1.364c-0.687,0.205-1.279,0.55-1.818,0.985
			c-0.67,0.436-1.306,0.912-1.817,1.535c-0.173,0.088-0.305,0.219-0.395,0.392c-0.564,0.514-1.035,1.11-1.478,1.726
			c-2.107,2.931-3.401,6.231-4.371,9.677c-0.234,0.768-0.484,1.532-0.569,2.337c-0.296,0.942-0.45,1.911-0.534,2.893
			c-0.206,0.765-0.255,1.547-0.257,2.333c-0.283,1.12-0.012,1.643,1.036,1.98c0.532,0.17,1.068,0.323,1.603,0.485
			c0.508,0.169,1.003,0.387,1.541,0.46c0.051,0.024,0.103,0.047,0.153,0.072c0.087,0.018,0.175,0.035,0.263,0.054
			c0.108,0.146,0.266,0.145,0.409,0.101c0.958-0.292,1.913-0.595,2.869-0.894c0.088-0.015,0.176-0.029,0.264-0.044
			c0.052-0.025,0.104-0.051,0.155-0.075c0.754-0.154,1.492-0.362,2.205-0.653c0.234-0.045,0.467-0.1,0.703-0.134
			c0.332-0.048,0.646-0.088,0.729-0.511c0.09-0.454-0.216-0.595-0.528-0.761c-2.144-1.145-3.649-2.851-4.474-5.141
			c-0.127-0.354-0.293-0.498-0.696-0.507c-1.485-0.029-2.154-0.573-2.575-2.001c0.01-0.824,0.02-1.649,0.03-2.474
			c0.023-0.049,0.047-0.097,0.07-0.146c0.148-0.269,0.296-0.538,0.444-0.807C31.781,57.615,31.817,57.577,31.854,57.539z
			 M44.973,44.742l-0.036-0.024l-0.021-0.051l-0.054-0.001c-0.149-0.124-0.313-0.214-0.511-0.23
			c-0.051-0.028-0.103-0.057-0.153-0.085c-0.088-0.007-0.176-0.015-0.264-0.021c-0.267-0.092-0.532-0.199-0.807-0.025
			c-0.791,0.031-1.387,0.395-1.805,1.061c-0.133,0.108-0.227,0.242-0.265,0.411c-0.021,0.035-0.042,0.069-0.062,0.103
			c-0.025,0.089-0.051,0.179-0.077,0.269c-0.022,0.067-0.075,0.185-0.062,0.193c0.12,0.073,0.226,0.007,0.325-0.066
			c0.185,0.006,0.372,0.024,0.54-0.084c0.044-0.012,0.089-0.023,0.134-0.035c0.347-0.025,0.694-0.051,1.042-0.077
			c0.432,0.01,0.863,0.019,1.294,0.027c0.344,0.047,0.686,0.11,1.031,0.133c0.266,0.016,0.636,0.251,0.771,0.027
			c0.151-0.251-0.123-0.559-0.3-0.806c-0.025-0.035-0.059-0.064-0.089-0.095c-0.065-0.182-0.173-0.323-0.362-0.391
			c-0.05-0.043-0.101-0.087-0.151-0.131C45.051,44.81,45.012,44.776,44.973,44.742z M69.608,72.869
			c-0.023-0.101-0.022-0.267-0.078-0.289c-0.109-0.044-0.165,0.086-0.216,0.18c-0.255,0.474-0.511,0.945-0.766,1.418
			c-0.153,0.254-0.48,0.46-0.234,0.825c0.381,0.567,0.768,1.131,1.152,1.695c0.688,1.104,1.378,2.208,2.066,3.312
			c0.062-0.032,0.124-0.065,0.185-0.098c-0.462-1.942-1.081-3.84-1.718-5.73c-0.012-0.371-0.177-0.701-0.288-1.046
			c-0.019-0.051-0.038-0.104-0.057-0.156C69.64,72.943,69.625,72.907,69.608,72.869z M29.396,88.723
			c-0.018,0.107,0.041,0.12,0.125,0.101c0.218-0.001,0.436-0.001,0.654-0.002c0.13,0.009,0.261,0.022,0.391,0.022
			c1.54,0.014,1.54,0.014,1.434-1.563c0.01-0.341,0.037-0.683,0.025-1.023c-0.021-0.612,0.18-1.084,0.771-1.337
			c0.896,0.052,1.185,0.343,1.205,1.213c0.009,0.385,0.02,0.77,0.03,1.153c-0.044,0.479-0.055,0.959,0.006,1.438
			c-0.036,0.079-0.002,0.098,0.07,0.083c0.436,0.004,0.872,0.008,1.308,0.013c0.875,0,1.75,0,2.624,0c0.872,0,1.744,0,2.616,0
			c0.875,0,1.75,0,2.624,0c0.872,0,1.744,0,2.616,0c0.875,0,1.749,0,2.624,0c0.872,0,1.744,0,2.616,0c0.525,0,1.05,0,1.575,0
			c0.083,0.02,0.139,0.007,0.122-0.098c0.071-0.479,0.055-0.96,0.009-1.441c0.059-0.873,0.059-1.746,0-2.619
			c0.052-0.874,0.052-1.748,0-2.62c0.043-0.873,0.095-1.746-0.029-2.617c-0.419-0.64-0.983-1.11-1.675-1.431
			c-0.832-0.4-1.688-0.656-2.621-0.416c-1.24,0.035-2.185,0.672-2.992,1.53c-0.62,0.66-1.34,1.019-2.247,0.998
			c-0.964-0.072-1.603-0.688-2.243-1.319c-0.714-0.704-1.552-1.165-2.581-1.207c-1.076-0.26-2.049,0.05-2.977,0.561
			c-1.022,0.561-1.675,1.331-1.481,2.607c0.067,0.441,0.064,0.915-0.265,1.298c-0.28,0.193-0.588,0.291-0.93,0.269
			c-0.208-0.154-0.415-0.311-0.623-0.466c-0.276-0.794-0.085-1.619-0.157-2.426c0.141-0.778,0.547-1.398,1.097-1.953
			c0.67-0.674,1.476-1.136,2.312-1.556c0.854-0.239,1.714-0.438,2.608-0.442c0.908,0.072,1.783,0.286,2.625,0.633
			c0.395,0.231,0.79,0.463,1.185,0.694c0.355,0.345,0.717,0.683,1.063,1.037c0.383,0.391,0.76,0.382,1.111-0.016
			c0.592-0.668,1.294-1.194,2.056-1.647c0.785-0.329,1.604-0.544,2.439-0.692c0.884-0.021,1.75,0.095,2.604,0.315
			c0.275,0.12,0.561,0.22,0.821,0.364c1.349,0.744,2.592,1.588,2.91,3.254c-0.002,2.902-0.009,5.803-0.003,8.704
			c0,0.226-0.103,0.479,0.095,0.683c0.476,0.085,0.953,0.047,1.431,0.021c0.35,0.001,0.701,0.001,1.051,0.001
			c0.089,0.023,0.125-0.009,0.106-0.1c0.001-0.48,0.002-0.961,0.003-1.442c0-0.873,0-1.745-0.001-2.616c0-0.875,0-1.75,0-2.623
			c0-0.872,0-1.745,0-2.618c0.157-2.356-0.786-4.16-2.822-5.326c-1.097-0.628-2.375-0.812-3.578-1.172
			c-0.868-0.25-1.735-0.5-2.603-0.749c-0.413-0.213-0.873-0.245-1.315-0.345c-0.624-0.141-1.288-0.408-1.455-0.99
			c-0.329-1.14-1.042-1.186-1.964-0.981c-0.167,0.036-0.348,0.02-0.521,0.027c-0.452-0.049-0.907-0.073-1.353-0.154
			c-0.35-0.065-0.484,0.046-0.571,0.384c-0.25,0.972-0.889,1.543-1.875,1.751c-0.485,0.102-0.958,0.258-1.436,0.389
			c-0.964,0.293-1.928,0.584-2.893,0.876c-0.625,0.173-1.255,0.331-1.875,0.521c-2.575,0.786-4.115,3.081-3.883,5.771
			c0,0.873,0.001,1.746,0.001,2.619c-0.059,0.873-0.059,1.746,0,2.619c-0.053,0.874-0.053,1.747,0,2.621
			C29.337,87.763,29.329,88.243,29.396,88.723z M86.804,88.723c-0.024,0.089,0.003,0.122,0.095,0.092
			c0.305,0.001,0.61,0.002,0.915,0.003c0.436,0.009,0.87,0.023,1.304,0.024c1.525,0.002,1.525,0.001,1.423-1.563
			c0-0.872,0-1.744,0-2.615c0-0.875,0-1.75,0-2.624c0-0.871,0-1.744,0-2.616c0.064-0.89,0.044-1.771-0.258-2.623
			c-0.736-2.482-2.487-3.806-4.939-4.329c-0.931-0.347-1.884-0.604-2.924-0.866c0.563,1.017,1.076,1.94,1.587,2.862
			c0.028,0.37-0.011,0.724-0.214,1.05c-0.237,0.38-0.462,0.767-0.692,1.149c-0.268,0.321-0.499,0.664-0.674,1.045
			c-0.372,0.569-0.744,1.139-1.116,1.709c-1.121,1.741-2.24,3.483-3.36,5.224c-0.253,0.281-0.451,0.598-0.609,0.939
			c-0.406,0.533-0.773,1.09-1.085,1.684c-0.385,0.524-0.726,1.119-1.538,0.946c-0.306-0.179-0.514-0.442-0.703-0.738
			c-0.58-0.904-1.178-1.794-1.77-2.689c-0.021-0.043-0.044-0.084-0.067-0.126c-0.562-0.871-1.125-1.742-1.688-2.613
			c-0.338-0.521-0.678-1.044-1.017-1.565c-0.227-0.353-0.453-0.704-0.68-1.058c-0.767-1.2-1.522-2.406-2.302-3.599
			c-0.338-0.517-0.518-1.037-0.288-1.644c0.524-0.704,0.756-1.553,1.298-2.387c-1.243,0.079-2.24,0.504-3.263,0.828
			c-2.256,0.567-3.747,1.943-4.424,4.182c-0.097,0.291-0.214,0.579-0.168,0.897c-0.087,0.17-0.112,0.35-0.076,0.537
			c-0.004,0.394-0.007,0.788-0.011,1.182c0,0.874,0,1.748,0,2.623c0,0.871,0,1.743,0,2.615c0,0.875,0,1.75,0,2.625
			c0.001,0.479,0.002,0.959,0.003,1.438c-0.028,0.089,0.002,0.12,0.091,0.092c0.653,0.001,1.307,0.003,1.961,0.006
			c1.644,0.102,1.644,0.102,1.55-1.542c0.008-0.366,0.035-0.734,0.018-1.1c-0.03-0.68,0.244-1.12,0.926-1.272
			c0.8,0.165,1.035,0.436,1.049,1.212c0.009,0.389,0.016,0.776,0.023,1.166c0.001,0.479,0.002,0.959,0.003,1.438
			c-0.019,0.089,0.012,0.126,0.103,0.099c0.523,0,1.047-0.002,1.57-0.003c0.875,0,1.75,0,2.624-0.001
			c0.872,0,1.745-0.001,2.617-0.001c0.873,0,1.747,0,2.621,0c0.873,0.001,1.745,0.002,2.617,0.002c0.876,0,1.751,0,2.625-0.001
			c0.872,0.001,1.743,0.001,2.614,0.001c0.701-0.001,1.4-0.002,2.101-0.002c0.091,0.032,0.119-0.003,0.098-0.092
			c0.003-0.48,0.005-0.962,0.007-1.443c0-0.873,0-1.745,0-2.616c0-0.875,0-1.75,0-2.623c0.001-0.872,0.002-1.745,0.003-2.618
			c0.055-0.383,0.246-0.684,0.555-0.914c0.923-0.144,1.213,0.037,1.46,0.912c0.001,0.874,0.002,1.748,0.003,2.623
			c0,0.871,0,1.743,0,2.615c0,0.875,0,1.75,0,2.625C86.801,87.764,86.802,88.243,86.804,88.723z M82.319,53.581
			c0.05-0.029,0.099-0.059,0.148-0.088l0.061,0.003l0.049-0.037c0.135-0.068,0.269-0.136,0.404-0.205
			c0.392-0.123,0.773-0.28,1.188-0.038c0.377,0.22,0.425,0.637,0.659,1.114c0.002-1.416-0.219-2.616-0.829-3.729
			c-0.32-0.8-0.792-1.496-1.427-2.08c-0.195-0.3-0.462-0.527-0.759-0.724c-0.464-0.427-0.973-0.784-1.569-1.005
			c-0.895-0.543-1.888-0.755-2.912-0.861c-0.871-0.08-1.742-0.055-2.613-0.022c-0.879-0.023-1.759-0.098-2.624,0.132
			c-0.942,0.11-1.807,0.441-2.614,0.934c-0.529,0.259-1.007,0.588-1.411,1.019c-0.611,0.467-1.099,1.043-1.466,1.719
			c-0.026,0.036-0.053,0.072-0.08,0.107c-0.85,1.273-1.39,3.142-1.057,3.857c0.249-0.747,0.5-1.45,1.389-1.53
			c0.867-0.178,1.747-0.134,2.622-0.128c0.774,0.144,1.549,0.29,2.323,0.433c0.973,0.289,1.946,0.578,2.919,0.867
			c0.086,0.014,0.171,0.027,0.257,0.041c0.756,0.327,1.551,0.505,2.362,0.619c0.864,0.205,1.737,0.196,2.614,0.119
			C80.77,54.049,81.564,53.909,82.319,53.581z M73.893,69.875c0.084,0.087,0.184,0.095,0.292,0.06c0.177,0.01,0.354,0.02,0.53,0.029
			c0.767,0.082,1.518-0.014,2.256-0.214c0.189-0.052,0.647,0.03,0.474-0.292c-0.173-0.322,0.097-1.086-0.746-0.918
			c-1.162,0.234-2.341,0.222-3.495-0.027c-0.471-0.101-0.506,0.101-0.523,0.433c-0.376,0.563-0.148,0.78,0.447,0.816
			C73.384,69.776,73.638,69.836,73.893,69.875z M57.154,58.464c-0.193-0.685-0.455-1.342-0.771-1.979
			c-0.019-0.245-0.133-0.449-0.276-0.64c-1.658-3.898-4.039-7.165-7.917-9.168c-0.188,0.479,0.149,0.542,0.387,0.669
			c2.003,1.058,3.537,2.596,4.646,4.564c0.691,1.227,1.03,2.573,1.312,3.937c-0.056,0.751-0.001,1.446,0.688,1.953
			c0.191,0.14,0.267,0.437,0.396,0.662c0.198,0.867,0.06,1.749,0.109,2.623c-0.268,0.961-0.8,1.903-1.807,1.891
			c-1.22-0.015-1.565,0.629-1.861,1.532c-0.04,0.122-0.123,0.229-0.186,0.341c-1.008,1.795-2.421,3.168-4.271,4.076
			c-0.231,0.114-0.34,0.242-0.312,0.497c0.026,0.235,0.102,0.424,0.365,0.471c0.234,0.041,0.469,0.076,0.704,0.113
			c0.912,0.306,1.828,0.597,2.768,0.801c0.857,0.318,1.731,0.585,2.627,0.77c0.304,0.144,0.603,0.324,0.958,0.204
			c0.561-0.188,1.118-0.388,1.676-0.584c0.888-0.264,1.819-0.405,2.618-0.923c0.354-0.185,0.472-0.533,0.448-0.871
			c-0.073-1.03-0.079-2.069-0.341-3.079c-0.012-0.132-0.025-0.266-0.037-0.396c-0.023-0.094-0.046-0.186-0.068-0.277
			c-0.044-0.668-0.164-1.321-0.37-1.958c-0.14-0.893-0.342-1.77-0.66-2.616C57.814,60.168,57.485,59.315,57.154,58.464z
			 M72.736,66.328c0.047,0.021,0.093,0.042,0.141,0.063c0.131,0.025,0.262,0.05,0.394,0.074c1.37,0.397,2.728,0.36,4.069-0.133
			c0.973-0.258,1.852-0.698,2.611-1.363c0.494-0.352,0.935-0.758,1.262-1.273c0.576-0.646,0.987-1.386,1.234-2.213
			c0.022-0.044,0.046-0.089,0.067-0.132c0.018-0.09,0.034-0.179,0.052-0.268c0.023-0.035,0.058-0.069,0.07-0.109
			c0.551-1.698,0.284-3.449,0.307-5.179c0.004-0.422-0.304-0.197-0.499-0.084c-0.088,0.016-0.176,0.03-0.264,0.045
			c-0.058,0.024-0.115,0.046-0.171,0.069c-0.684,0.102-1.366,0.201-2.051,0.301c-0.876-0.039-1.756,0.029-2.629-0.11
			c-0.347-0.058-0.693-0.116-1.04-0.173c-0.086-0.028-0.171-0.057-0.257-0.084c-0.132-0.018-0.265-0.036-0.397-0.054
			c-1.177-0.354-2.335-0.777-3.539-1.039c-0.842-0.344-1.728-0.503-2.623-0.618C69.216,54.03,68.959,54,68.7,53.996
			c-1.396-0.021-1.397-0.019-1.472,1.413c-0.201,1.014-0.078,2.037-0.078,3.056c-0.035,0.308-0.046,0.615,0.024,0.919
			c-0.033,0.114-0.028,0.22,0.054,0.313c-0.006,0.484,0.091,0.945,0.297,1.383c0.704,2.414,2.249,4.063,4.56,5.013
			C72.276,66.241,72.491,66.324,72.736,66.328z M48.533,49.651c-0.786-0.607-1.681-0.982-2.634-1.235
			c-0.856-0.258-1.727-0.386-2.622-0.299c-0.905-0.063-1.773,0.099-2.618,0.415c-3.321,0.958-6.052,4.305-6.289,7.734
			c-0.014,0.201-0.245,0.542,0.222,0.61c0.426,0.063,0.496-0.211,0.569-0.527c0.119-0.507,0.282-1.003,0.391-1.512
			c0.291-1.351,1.072-2.151,2.484-2.262c0.547,0.144,1.086,0.306,1.543,0.661c0.318,0.34,0.696,0.605,1.082,0.861
			c0.725,0.588,1.498,1.102,2.354,1.483c0.853,0.516,1.756,0.896,2.747,1.05c0.087,0.028,0.174,0.056,0.262,0.084
			c0.255,0.019,0.512,0.037,0.768,0.055c0.126,0.081,0.263,0.102,0.408,0.064c0.44,0.001,0.879,0.002,1.319,0.003
			c0.873,0,1.746-0.001,2.618-0.001c0.437,0,0.873,0,1.31,0c0.087,0.04,0.113,0.008,0.095-0.079
			c0.047-0.224,0.051-0.446-0.045-0.659c0.009-0.018,0.03-0.042,0.025-0.052c-0.017-0.033-0.042-0.062-0.064-0.093
			c-0.236-2.136-1.189-3.902-2.754-5.354C49.385,50.195,48.981,49.895,48.533,49.651z M36.715,63.707
			c0.287,0.724,0.72,1.342,1.318,1.841c1.407,1.545,3.176,2.273,5.246,2.322c0.353,0.035,0.706,0.052,1.055-0.04
			c0.057-0.016,0.115-0.032,0.173-0.048c0.488,0.006,0.943-0.129,1.388-0.312c0.782-0.238,1.505-0.589,2.119-1.14
			c0.203-0.095,0.371-0.229,0.5-0.414c0.751-0.597,1.312-1.343,1.705-2.216c0.48-0.807,0.749-1.676,0.776-2.617
			c0.154-0.602,0.066-1.216,0.104-1.823c0.024-0.372-0.15-0.43-0.467-0.424c-0.719,0.017-1.44,0.031-2.158-0.009
			c-0.415-0.024-0.428,0.107-0.363,0.458c0.066,0.359,0.034,0.739,0.024,1.109c-0.019,0.685-0.374,1.083-0.954,1.088
			c-0.578,0.006-0.965-0.384-1.003-1.061c-0.03-0.552-0.048-1.109,0.17-1.645c-0.307-0.051-0.542-0.086-0.775-0.13
			c-1.779-0.338-3.352-1.171-4.902-2.057c-0.324-0.296-0.686-0.537-1.072-0.745c-0.232-0.19-0.46-0.386-0.696-0.572
			c-1.182-0.931-1.152-0.921-1.561,0.506c-0.263,0.917-0.294,1.937-1.04,2.669c-0.204,0.103-0.494,0.133-0.481,0.445
			c0.029,0.733-0.103,1.473,0.091,2.201C35.954,62.035,36.21,62.909,36.715,63.707z M75.773,81.105
			c-0.139-1.141-0.277-2.281-0.415-3.422c-0.022-0.185-0.064-0.338-0.302-0.343c-0.238-0.002-0.289,0.154-0.314,0.335
			c-0.039,0.28-0.054,0.563-0.109,0.838c-0.346,1.766-0.514,3.516,0.457,5.161c0.253-0.769,0.545-1.555,0.686-2.389
			C75.852,81.224,75.849,81.164,75.773,81.105z M79.033,77.702c-0.024,0.047-0.048,0.095-0.071,0.142
			c-0.019,0.089-0.036,0.179-0.055,0.269c-0.018,0.039-0.036,0.079-0.053,0.118c-0.025,0.096-0.048,0.192-0.073,0.289
			c-0.032,0.081-0.064,0.16-0.098,0.242c-0.015,0.081-0.031,0.162-0.047,0.241c-0.083,0.066-0.134,0.14-0.064,0.244
			c-0.124,0.166-0.208,0.348-0.19,0.563c-0.075,0.161-0.151,0.322-0.24,0.513c0.236,0.018,0.3-0.105,0.343-0.253
			c0.101-0.163,0.202-0.328,0.303-0.491c0.065-0.097,0.13-0.193,0.195-0.289c0.927-1.42,1.855-2.839,2.777-4.261
			c0.065-0.102,0.188-0.206,0.108-0.35c-0.399-0.719-0.804-1.434-1.296-2.309c-0.205,0.781-0.352,1.345-0.498,1.909
			c-0.025,0.054-0.051,0.106-0.075,0.16c-0.255,0.781-0.547,1.553-0.696,2.364c-0.015,0.037-0.026,0.073-0.039,0.11
			c-0.108,0.105-0.101,0.243-0.106,0.378c-0.025,0.054-0.051,0.107-0.076,0.16C79.066,77.536,79.049,77.619,79.033,77.702z
			 M74.22,71.958c-1.047-0.122-1.956-0.375-2.97-0.603c0.278,0.914,0.523,1.721,0.79,2.599C72.774,73.281,73.443,72.67,74.22,71.958
			z M75.871,71.962c0.764,0.692,1.449,1.315,2.189,1.986c0.267-0.884,0.512-1.696,0.787-2.609
			C77.827,71.618,76.904,71.812,75.871,71.962z M84.937,58.463c-0.004,0-0.008,0-0.01,0c0,0.281-0.014,0.563,0.004,0.843
			c0.012,0.163-0.134,0.428,0.199,0.438c0.229,0.008,0.47-0.07,0.514-0.308c0.111-0.596,0.108-1.203,0.016-1.799
			c-0.041-0.261-0.263-0.392-0.54-0.348c-0.309,0.048-0.159,0.3-0.177,0.462C84.917,57.986,84.937,58.226,84.937,58.463z
			 M65.165,58.526c0,0-0.002,0-0.003,0c0-0.261,0.019-0.524-0.007-0.783c-0.015-0.163,0.133-0.42-0.188-0.458
			c-0.243-0.029-0.457,0.065-0.507,0.309c-0.125,0.62-0.124,1.25,0.018,1.869c0.056,0.248,0.308,0.304,0.531,0.269
			c0.264-0.04,0.146-0.269,0.153-0.422C65.175,59.049,65.165,58.788,65.165,58.526z M75.004,75.358
			c0.505,0.126,0.784-0.114,0.898-0.58c0.031-0.123-0.753-0.902-0.843-0.843c-0.337,0.224-0.811,0.434-0.842,0.834
			C74.188,75.154,74.488,75.5,75.004,75.358z M53.072,60.018c-0.006,0-0.012,0-0.018,0c0,0.218-0.004,0.435,0.002,0.649
			c0.004,0.172-0.143,0.418,0.19,0.442c0.248,0.02,0.461-0.096,0.475-0.339c0.029-0.538,0.025-1.082-0.013-1.62
			c-0.014-0.202-0.209-0.32-0.435-0.307c-0.283,0.018-0.19,0.242-0.197,0.393C53.062,59.497,53.072,59.758,53.072,60.018z
			 M33.851,59.971c-0.002,0-0.003,0-0.005,0c0-0.237,0.015-0.476-0.005-0.712c-0.013-0.146,0.113-0.38-0.166-0.408
			c-0.237-0.023-0.46,0.066-0.471,0.33c-0.023,0.538-0.021,1.079,0.003,1.617c0.011,0.231,0.216,0.303,0.427,0.311
			c0.288,0.013,0.213-0.202,0.216-0.359C33.854,60.49,33.851,60.23,33.851,59.971z"/>
		<path fill-rule="evenodd" clip-rule="evenodd" fill="#F58556" d="M46.021,63.855c0.614,0.693,0.606,1.114-0.032,1.775
			c-0.669,0.692-1.527,0.919-2.447,0.994c-1.085-0.023-2.051-0.331-2.79-1.178c-0.423-0.485-0.438-0.985-0.037-1.393
			c0.405-0.41,0.915-0.412,1.394-0.004c1.042,0.885,1.909,0.821,2.874-0.211c0.248-0.038,0.496-0.076,0.744-0.114
			C45.825,63.769,45.922,63.813,46.021,63.855z"/>
		<path fill-rule="evenodd" clip-rule="evenodd" fill="#F58556" d="M40.49,61.197c-0.554,0.396-1.081,0.407-1.569-0.11
			c-0.4-1.199-0.255-2.056,0.445-2.617c1.047-0.039,1.347,0.249,1.363,1.31c0.006,0.432,0.026,0.868-0.153,1.279
			C40.547,61.104,40.519,61.151,40.49,61.197z"/>
		<path fill-rule="evenodd" clip-rule="evenodd" fill="#F58556" d="M77.857,58.463c0.01-0.106,0.023-0.213,0.029-0.319
			c0.029-0.497,0.144-0.95,0.686-1.123c0.558-0.179,0.95,0.08,1.257,0.525c0.013,0.088,0.025,0.175,0.038,0.263
			c0.007,0.219,0.016,0.438,0.022,0.657c-0.03,0.345-0.06,0.689-0.091,1.034c-0.318,0.387-0.688,0.676-1.225,0.483
			c-0.559-0.2-0.678-0.672-0.688-1.199C77.885,58.677,77.867,58.571,77.857,58.463z"/>
		<path fill-rule="evenodd" clip-rule="evenodd" fill="#F58556" d="M74.714,65.318c-0.965-0.046-1.735-0.532-2.469-1.099
			c-0.094-0.173-0.187-0.345-0.28-0.518c-0.033-0.309,0.036-0.602,0.145-0.887c0.72-0.547,1.007-0.537,1.69,0.067
			c0.265,0.235,0.541,0.433,0.919,0.409c0.63,0.13,1.193,0.012,1.646-0.47c0.266-0.285,0.594-0.405,0.971-0.424
			c0.606,0.228,0.875,0.66,0.796,1.305c-0.265,0.313-0.528,0.625-0.792,0.937C76.538,65.158,75.658,65.362,74.714,65.318z"/>
		<path fill-rule="evenodd" clip-rule="evenodd" fill="#F58556" d="M64.884,82.039c-0.216,0.096-0.432,0.19-0.646,0.288
			c-0.371-0.005-0.652-0.195-0.907-0.44c-0.299-0.805-0.06-1.646-0.167-2.464c0.089-0.61,0.43-0.955,1.055-1.002
			c0.542,0.12,0.887,0.43,0.958,1c-0.006,0.522-0.029,1.046-0.014,1.568C65.173,81.375,65.102,81.723,64.884,82.039z"/>
		<path fill-rule="evenodd" clip-rule="evenodd" fill="#F58556" d="M72.244,58.464c-0.032,0.38-0.033,0.766-0.174,1.129
			c-0.334,0.358-0.72,0.579-1.215,0.372c-0.489-0.205-0.645-0.613-0.618-1.115c0.006-0.13-0.017-0.26-0.026-0.39
			c0.001-0.131,0.002-0.262,0.004-0.394c0.002-0.042,0.005-0.085,0.006-0.126c0.271-1.094,1.025-1.302,1.872-0.516
			C72.144,57.771,72.193,58.118,72.244,58.464z"/>
	</g>
</g>
<g id="Layer_4">
	<path fill-rule="evenodd" clip-rule="evenodd" fill="#F58556" d="M54.122,51.415c1.222-3.957,0.857-7.663-0.915-11.255
		c-0.432-0.875-1.025-1.884,0.229-2.451c1.109-0.5,1.715,0.333,2.177,1.293c2.064,4.292,2.457,8.712,0.992,13.244
		c-0.354,1.098-0.271,1.804,0.615,2.649c2.405,2.297,4.68,4.731,7.024,7.127c5.218-3.08,10.554-3.838,15.976-1.538
		c2.241,0.951,4.18,2.646,6.187,4.099c0.795,0.573,1.542,1.552,0.38,2.329c-0.44,0.293-1.693-0.052-2.19-0.518
		c-4.894-4.573-10.415-5.72-16.663-3.304c-0.463,0.179-0.888,0.453-1.571,0.81c1.112,1.144,2.117,2.173,3.114,3.209
		c1.963,2.034,1.915,2.438-0.536,3.724c-10.429,5.475-20.863,10.938-31.296,16.405c-2.326,1.219-4.625,2.495-7,3.609
		c-0.644,0.303-1.522,0.107-2.292,0.14c0.054-0.771-0.127-1.662,0.199-2.289c6.699-12.896,13.452-25.764,20.206-38.63
		c0.998-1.901,1.637-1.989,3.162-0.519c0.553,0.535,1.092,1.084,1.649,1.617C53.649,51.247,53.788,51.27,54.122,51.415z
		 M64.824,69.816c-6.86-2.141-13.451-4.195-20.128-6.278c-0.722,1.416-1.37,2.688-2.08,4.08c4.564,1.439,9.049,2.54,13.274,4.276
		C59.502,73.381,61.904,71.603,64.824,69.816z M46.099,61.172c6.509,2.038,12.868,4.029,19.226,6.021
		c0.106-0.145,0.21-0.287,0.313-0.433c-1.93-1.852-3.839-3.723-5.802-5.534c-0.5-0.462-1.13-0.858-1.773-1.079
		c-2.112-0.727-4.249-1.39-6.393-2.022C47.78,56.977,47.775,56.993,46.099,61.172z M55.988,74.605
		c-5.19-1.624-9.858-3.084-14.643-4.581c-0.74,1.38-1.439,2.686-2.179,4.064c3.48,1.101,6.7,2.147,9.942,3.12
		c0.572,0.172,1.323,0.246,1.836,0.016C52.512,76.524,54.002,75.656,55.988,74.605z M35.917,80.341
		c3.88,2.552,7.317,1.821,10.705-1.105c-2.928-0.921-5.748-1.807-8.685-2.729C37.225,77.857,36.556,79.128,35.917,80.341z
		 M50.659,52.18c-0.428,0.848-0.785,1.556-1.239,2.457c1.742,0.558,3.342,1.069,5.396,1.726
		C53.234,54.771,52.007,53.538,50.659,52.18z M37.801,84.164c-3.5-1.52-3.567-1.485-4.963,2.542
		C34.511,85.85,36.013,85.079,37.801,84.164z"/>
	<path fill-rule="evenodd" clip-rule="evenodd" fill="#F58556" d="M71.431,39.992c-0.438,5.989-2.321,11.156-6.279,15.535
		c-0.611,0.677-1.265,1.449-2.239,0.577c-0.95-0.849-0.354-1.608,0.271-2.311c3.135-3.522,4.837-7.658,5.193-12.337
		c0.245-3.246-0.379-6.36-1.667-9.348c-0.4-0.929-1.067-2.01,0.372-2.579c1.397-0.55,1.846,0.66,2.109,1.605
		C70.008,34.067,70.694,37.037,71.431,39.992z"/>
	<path fill-rule="evenodd" clip-rule="evenodd" fill="#F58556" d="M88.868,41.877c-0.172,1.976-0.921,3.311-2.673,4.07
		c-0.586,0.255-0.975,0.958-1.464,1.447c-2.076,2.068-3.998,4.34-6.321,6.076c-0.737,0.55-2.579-0.23-3.837-0.641
		c-0.297-0.097-0.28-1.156-0.408-1.774c0.604-0.12,1.202-0.305,1.811-0.343c0.689-0.044,1.386,0.045,2.079,0.077
		c-0.008-0.681-0.036-1.361-0.015-2.041c0.016-0.579-0.118-1.348,0.192-1.677c0.29-0.307,1.075-0.166,1.644-0.184
		c0.684-0.023,1.472,0.189,2.006-0.092c0.258-0.136,0.042-1.17,0.047-1.796c0.003-0.588-0.209-1.505,0.069-1.692
		c0.452-0.304,1.225-0.134,1.863-0.164c0.638-0.031,1.398,0.133,1.866-0.164c0.276-0.175,0.051-1.085,0.119-1.656
		c0.095-0.767,0.253-1.525,0.384-2.288c0.693,0.401,1.503,0.689,2.042,1.241C88.671,40.685,88.72,41.438,88.868,41.877z"/>
	<path fill-rule="evenodd" clip-rule="evenodd" fill="#F58556" d="M60.405,83.392c-0.006-1.939,1.258-3.613,3.27-3.904
		c1.113-0.161,1.639-0.862,2.427-1.429c2.125-1.527,4.489-2.725,6.756-4.035c1.349-0.782,3.06,0.018,4.007,1.438
		c0.3,0.451,0.12,1.223,0.16,1.848c-0.627,0.027-1.27,0.148-1.876,0.055c-0.737-0.114-1.448-0.408-2.169-0.626
		c-0.095,0.74-0.148,1.491-0.302,2.22c-0.099,0.461-0.26,1.182-0.547,1.267c-0.521,0.154-1.167-0.032-1.742-0.159
		c-0.68-0.152-1.339-0.394-2.006-0.595c-0.146,0.685-0.261,1.378-0.448,2.051c-0.153,0.554-0.313,1.479-0.615,1.542
		c-0.557,0.115-1.218-0.291-1.841-0.458c-0.563-0.151-1.289-0.545-1.655-0.333c-0.396,0.229-0.724,1.101-0.61,1.578
		c0.261,1.102,0.219,2.143-1.003,2.134c-0.591-0.005-1.197-1.159-1.742-1.837C60.337,83.983,60.419,83.647,60.405,83.392z"/>
	<path fill-rule="evenodd" clip-rule="evenodd" fill="#F58556" d="M40.038,32.11c0.232,0.199,1.015,0.564,1.024,0.949
		c0.011,0.518-0.519,1.095-0.915,1.563c-0.492,0.581-1.085,1.076-1.636,1.607c0.556,0.457,1.137,0.887,1.659,1.379
		c0.375,0.355,0.93,0.792,0.933,1.196c0.005,0.407-0.54,0.852-0.902,1.222c-0.537,0.547-1.125,1.042-1.692,1.558
		c0.543,0.475,1.104,0.93,1.622,1.43c0.375,0.361,1.008,0.829,0.959,1.166c-0.072,0.492-0.626,0.933-1.024,1.35
		c-0.485,0.509-1.02,0.971-1.533,1.454c0.521,0.477,1.081,0.919,1.552,1.441c0.412,0.457,0.725,1.005,1.081,1.513
		c-0.596,0.333-1.218,0.988-1.781,0.94c-2.594-0.22-4.164-2.894-3.175-5.402c0.347-0.881,0.144-1.556,0.08-2.406
		c-0.21-2.768-0.31-5.593-0.043-8.352C36.401,33.106,37.954,32.262,40.038,32.11z"/>
	<path fill-rule="evenodd" clip-rule="evenodd" fill="#F58556" d="M33.07,68.629c-0.01,2.209-1.856,4.091-3.998,4.075
		c-2.134-0.016-4.081-1.958-4.074-4.067c0.007-2.172,1.862-3.993,4.073-4.001C31.328,64.629,33.082,66.379,33.07,68.629z
		 M31.016,68.535c-0.931-0.573-1.486-1.189-1.942-1.124c-0.508,0.073-0.926,0.768-1.383,1.193c0.495,0.469,0.932,1.185,1.505,1.318
		C29.565,70.009,30.135,69.242,31.016,68.535z"/>
	<path fill-rule="evenodd" clip-rule="evenodd" fill="#F58556" d="M79.303,84.813c0.029-2.252,1.85-4.03,4.055-3.965
		c2.157,0.063,4.041,2.014,3.996,4.134c-0.047,2.171-1.962,3.986-4.155,3.941C80.929,88.875,79.272,87.127,79.303,84.813z
		 M85.205,84.861c-0.885-0.6-1.442-1.272-1.943-1.229c-0.47,0.039-1.208,0.824-1.214,1.29c-0.005,0.431,0.791,1.198,1.258,1.216
		C83.811,86.158,84.341,85.48,85.205,84.861z"/>
	<path fill-rule="evenodd" clip-rule="evenodd" fill="#F58556" d="M87.413,57.899c-0.04-2.308,1.607-4.033,3.9-4.076
		c2.239-0.043,4.085,1.679,4.169,3.887c0.076,2.065-1.848,4.086-3.97,4.167C89.392,61.959,87.456,60.079,87.413,57.899z
		 M91.464,59.736c0.613-0.927,1.277-1.492,1.226-1.981c-0.046-0.457-0.848-1.145-1.328-1.153c-0.411-0.007-1.148,0.79-1.17,1.257
		C90.171,58.346,90.834,58.863,91.464,59.736z"/>
	<path fill-rule="evenodd" clip-rule="evenodd" fill="#F58556" d="M80.578,34.674c-2.321,0.009-3.992-1.651-3.985-3.959
		c0.009-2.325,1.673-4.018,3.942-4.006c2.249,0.011,4.048,1.762,4.077,3.966C84.644,32.834,82.795,34.666,80.578,34.674z
		 M78.628,30.752c0.948,0.589,1.521,1.229,1.983,1.158c0.508-0.078,0.916-0.812,1.366-1.26c-0.468-0.438-0.908-1.174-1.412-1.223
		C80.097,29.382,79.56,30.076,78.628,30.752z"/>
	<path fill-rule="evenodd" clip-rule="evenodd" fill="#F58556" d="M62.839,30.604c0.033,2.388-1.577,4.063-3.905,4.06
		c-2.365-0.003-4.019-1.64-4.014-3.973c0.004-2.313,1.665-3.961,4.021-3.992C61.093,26.668,62.808,28.387,62.839,30.604z
		 M60.825,30.848c-0.877-0.722-1.381-1.456-1.859-1.44c-0.496,0.017-0.968,0.759-1.45,1.184c0.416,0.467,0.78,1.237,1.26,1.318
		C59.258,31.991,59.856,31.386,60.825,30.848z"/>
	<path fill-rule="evenodd" clip-rule="evenodd" fill="#F58556" d="M91.848,74.648c-0.573,0.252-1.15,0.705-1.723,0.699
		c-0.508-0.004-1.258-0.398-1.465-0.83c-0.431-0.906-0.709-1.941-0.777-2.939c-0.031-0.478,0.476-1.287,0.898-1.411
		c0.41-0.122,1.29,0.307,1.491,0.723c0.467,0.96,0.645,2.059,0.94,3.1C91.424,74.21,91.637,74.428,91.848,74.648z"/>
	<path fill-rule="evenodd" clip-rule="evenodd" fill="#F58556" d="M50.777,36.758c-1.037-1.174-1.82-1.996-2.466-2.915
		c-0.052-0.073,1.164-1.235,1.244-1.173c0.883,0.674,1.71,1.45,2.41,2.313C52.064,35.105,51.402,35.842,50.777,36.758z"/>
	<path fill-rule="evenodd" clip-rule="evenodd" fill="#F58556" d="M41.847,54.918c-0.945,0.733-1.465,1.444-1.904,1.396
		c-0.483-0.053-1.096-0.742-1.247-1.271c-0.08-0.275,0.676-1.084,1.117-1.138C40.293,53.848,40.846,54.384,41.847,54.918z"/>
</g>
</svg>
